<svg xmlns="http://www.w3.org/2000/svg" xmlns:xlink="http://www.w3.org/1999/xlink" xmlns:serif="http://www.serif.com/" viewBox="0 0 32 32" version="1.1" xml:space="preserve" style="" x="0px" y="0px" fill-rule="evenodd" clip-rule="evenodd" stroke-linejoin="round" stroke-miterlimit="2"><g transform="matrix(1,0,0,1,-96,-336)"><path fill="#FFFFFF" d="M114.855,339.603C114.872,338.831 114.299,338.172 113.532,338.081C113.529,338.08 113.527,338.08 113.525,338.08C112.511,337.973 111.488,337.973 110.474,338.084C110.473,338.084 110.471,338.084 110.47,338.084C109.704,338.175 109.133,338.832 109.149,339.603C109.154,339.944 109.162,340.337 109.169,340.673C109.174,340.9 109.025,341.101 108.807,341.164C108.806,341.164 108.805,341.164 108.804,341.165C108.038,341.388 107.299,341.694 106.599,342.075C106.598,342.076 106.596,342.076 106.595,342.077C106.398,342.187 106.152,342.149 105.996,341.987L105.252,341.216C104.718,340.658 103.847,340.597 103.24,341.075C103.239,341.076 103.237,341.078 103.235,341.079C102.442,341.72 101.719,342.444 101.081,343.239C101.08,343.24 101.079,343.241 101.078,343.243C100.601,343.848 100.661,344.717 101.218,345.25C101.462,345.488 101.746,345.76 101.989,345.993C102.152,346.15 102.19,346.398 102.079,346.596C102.079,346.597 102.079,346.598 102.078,346.599C101.695,347.298 101.388,348.037 101.163,348.802C101.162,348.803 101.162,348.804 101.161,348.806C101.099,349.023 100.899,349.171 100.673,349.166L99.603,349.146C98.831,349.129 98.172,349.702 98.081,350.469C98.08,350.471 98.08,350.474 98.08,350.476C97.973,351.49 97.973,352.513 98.084,353.527C98.084,353.528 98.084,353.53 98.084,353.531C98.175,354.297 98.832,354.868 99.603,354.852C99.944,354.847 100.337,354.839 100.673,354.832C100.9,354.827 101.101,354.976 101.164,355.194C101.164,355.195 101.164,355.196 101.165,355.197C101.388,355.963 101.694,356.702 102.075,357.402C102.076,357.403 102.076,357.405 102.077,357.406C102.187,357.603 102.149,357.849 101.987,358.005L101.216,358.749C100.658,359.283 100.597,360.154 101.075,360.761C101.076,360.762 101.078,360.764 101.079,360.766C101.72,361.559 102.444,362.282 103.239,362.92C103.24,362.921 103.241,362.922 103.243,362.923C103.848,363.4 104.717,363.339 105.25,362.783C105.488,362.539 105.76,362.255 105.993,362.012C106.15,361.849 106.398,361.811 106.596,361.922C106.597,361.922 106.598,361.922 106.599,361.923C107.298,362.306 108.037,362.613 108.802,362.838C108.803,362.839 108.804,362.839 108.806,362.839C109.023,362.901 109.171,363.102 109.166,363.327L109.146,364.398C109.129,365.17 109.702,365.829 110.469,365.92C110.471,365.921 110.474,365.921 110.476,365.921C111.49,366.028 112.513,366.028 113.527,365.917C113.528,365.917 113.53,365.917 113.531,365.917C114.297,365.826 114.868,365.169 114.852,364.398C114.847,364.057 114.839,363.664 114.832,363.328C114.827,363.101 114.976,362.899 115.194,362.837C115.195,362.837 115.196,362.837 115.197,362.836C115.963,362.613 116.702,362.307 117.402,361.926C117.403,361.925 117.405,361.924 117.406,361.924C117.603,361.814 117.849,361.851 118.005,362.014L118.749,362.785C119.283,363.343 120.154,363.404 120.761,362.926C120.762,362.925 120.764,362.923 120.766,362.922C121.559,362.281 122.282,361.557 122.92,360.762C122.921,360.761 122.922,360.759 122.923,360.758C123.4,360.153 123.339,359.284 122.783,358.751C122.539,358.513 122.255,358.241 122.012,358.008C121.849,357.851 121.811,357.603 121.922,357.405C121.922,357.404 121.922,357.403 121.923,357.402C122.306,356.703 122.613,355.964 122.838,355.199C122.839,355.198 122.839,355.196 122.839,355.195C122.901,354.978 123.102,354.83 123.327,354.835L124.398,354.855C125.17,354.872 125.829,354.299 125.92,353.532C125.921,353.529 125.921,353.527 125.921,353.525C126.028,352.511 126.028,351.488 125.917,350.474C125.917,350.473 125.917,350.471 125.917,350.47C125.826,349.704 125.169,349.133 124.398,349.149C124.057,349.154 123.664,349.162 123.328,349.169C123.101,349.174 122.899,349.025 122.837,348.807C122.837,348.806 122.837,348.805 122.836,348.804C122.613,348.038 122.307,347.299 121.926,346.599C121.925,346.598 121.924,346.596 121.924,346.595C121.814,346.398 121.851,346.152 122.014,345.996L122.785,345.252C123.343,344.718 123.404,343.847 122.926,343.24C122.925,343.239 122.923,343.237 122.922,343.235C122.281,342.442 121.557,341.719 120.762,341.081C120.761,341.08 120.759,341.079 120.758,341.078C120.153,340.601 119.284,340.661 118.751,341.218C118.513,341.462 118.241,341.746 118.008,341.989C117.851,342.152 117.603,342.19 117.405,342.079C117.404,342.079 117.403,342.079 117.402,342.078C116.703,341.695 115.964,341.388 115.199,341.163C115.198,341.162 115.196,341.162 115.195,341.161C114.978,341.099 114.83,340.899 114.835,340.673L114.855,339.603ZM112,343.501C107.309,343.501 103.501,347.309 103.501,352C103.501,356.691 107.309,360.5 112,360.5C116.691,360.5 120.5,356.691 120.5,352C120.5,347.309 116.691,343.501 112,343.501ZM114.558,355.819C114.327,356.74 114.013,357.54 113.638,358.166C113.168,358.949 112.627,359.46 112,359.46C111.374,359.46 110.832,358.949 110.363,358.166C109.988,357.54 109.674,356.74 109.443,355.819C110.248,355.936 111.108,356 112,356C112.893,356 113.753,355.936 114.558,355.819ZM104.814,354.15C104.971,354.27 105.141,354.385 105.325,354.495C106.116,354.97 107.162,355.362 108.374,355.626C108.639,356.84 109.03,357.888 109.505,358.681C109.614,358.862 109.728,359.03 109.846,359.185C107.436,358.463 105.535,356.56 104.814,354.15ZM119.187,354.15C118.466,356.56 116.565,358.463 114.155,359.185C114.273,359.03 114.387,358.862 114.496,358.681C114.971,357.888 115.362,356.84 115.627,355.626C116.839,355.362 117.885,354.97 118.676,354.495C118.86,354.385 119.03,354.27 119.187,354.15ZM109.225,349.225C110.086,349.079 111.022,349 112,349C112.979,349 113.915,349.079 114.776,349.225C114.921,350.085 115,351.021 115,352C115,352.979 114.921,353.915 114.776,354.775C113.915,354.921 112.979,355 112,355C111.022,355 110.086,354.921 109.225,354.775C109.08,353.915 109.001,352.979 109.001,352C109.001,351.021 109.08,350.085 109.225,349.225ZM108.182,349.443C108.065,350.248 108.001,351.108 108.001,352C108.001,352.892 108.065,353.752 108.182,354.557C107.263,354.326 106.464,354.013 105.839,353.638C105.057,353.168 104.547,352.626 104.547,352C104.547,351.374 105.057,350.832 105.839,350.362C106.464,349.987 107.263,349.674 108.182,349.443ZM115.819,349.443C116.738,349.674 117.537,349.987 118.162,350.362C118.944,350.832 119.454,351.374 119.454,352C119.454,352.626 118.944,353.168 118.162,353.638C117.537,354.013 116.738,354.326 115.819,354.557C115.936,353.752 116,352.892 116,352C116,351.108 115.936,350.248 115.819,349.443ZM109.845,344.816C109.727,344.971 109.614,345.139 109.505,345.319C109.03,346.112 108.639,347.16 108.374,348.374C107.162,348.638 106.116,349.03 105.325,349.505C105.141,349.615 104.971,349.73 104.815,349.85C105.536,347.44 107.436,345.539 109.845,344.816ZM114.156,344.816C116.565,345.539 118.465,347.44 119.186,349.85C119.03,349.73 118.86,349.615 118.676,349.505C117.885,349.03 116.839,348.638 115.627,348.374C115.362,347.16 114.971,346.112 114.496,345.319C114.387,345.139 114.274,344.971 114.156,344.816ZM109.443,348.181C109.674,347.26 109.988,346.46 110.363,345.834C110.832,345.051 111.374,344.54 112,344.54C112.627,344.54 113.168,345.051 113.638,345.834C114.013,346.46 114.327,347.26 114.558,348.181C113.753,348.064 112.893,348 112,348C111.108,348 110.248,348.064 109.443,348.181Z"/></g></svg>